# xmcd
#
# Track frame offsets: 
#        150
#        14767
#        31780
#        45717
#        57972
#        69345
#        80427
#        91685
#        105810
#        125580
#        143032
#        158142
#        171717
#        193877
#
# Disc length: 2738 seconds
#
# Revision: 4
# Processed by: cddbd v1.5.2PL0 Copyright (c) Steve Scherf et al.
# Submitted via: ExactAudioCopy v1.0b1
#
DISCID=b70ab00e
DTITLE=Ted Hawkins - Songs From Venice Beach
DYEAR=1995
DGENRE=Blues
TTITLE0=Searching For My Love
TTITLE1=I Got What I Wanted
TTITLE2=Ladder Of Success
TTITLE3=Having A Party
TTITLE4=There Stands The Glass
TTITLE5=Quiet Place
TTITLE6=Good Times
TTITLE7=Too Busy Thinking About My Baby
TTITLE8=Just My Imagination
TTITLE9=He Will Break Your Heart
TTITLE10=Gypsy Woman
TTITLE11=Somebody Have Mercy
TTITLE12=Share Your Love With Me
TTITLE13=All I Have To Offer You Is Me
EXTD=ECD 28000-2\n\nTed Hawkins:  vocals and guitar\n\nRecorded on Sep
EXTD=tember 15 - 17, 1985 at Audio Media Recorders, Inc, Nashville, Te
EXTD=nn.
EXTT0=
EXTT1=
EXTT2=
EXTT3=
EXTT4=
EXTT5=
EXTT6=
EXTT7=
EXTT8=
EXTT9=
EXTT10=
EXTT11=
EXTT12=
EXTT13=
PLAYORDER=
